HIERARCHY
ROOT Hips
{
	OFFSET 0 0 0
	CHANNELS 6 Xposition Yposition Zposition Yrotation Xrotation Zrotation
	JOINT Spine
	{
		OFFSET -0 8.38078 -2.67137
		CHANNELS 3 Yrotation Xrotation Zrotation
		JOINT Spine1
		{
			OFFSET -0 10.2701 0
			CHANNELS 3 Yrotation Xrotation Zrotation
			JOINT Spine2
			{
				OFFSET -0 10.2701 0
				CHANNELS 3 Yrotation Xrotation Zrotation
				JOINT Spine3
				{
					OFFSET -0 10.2701 0
					CHANNELS 3 Yrotation Xrotation Zrotation
					JOINT Neck
					{
						OFFSET -0 16.9472 3.67137
						CHANNELS 3 Yrotation Xrotation Zrotation
						JOINT Head
						{
							OFFSET -0 10.476 0
							CHANNELS 3 Yrotation Xrotation Zrotation
							End Site
							{
								OFFSET -0 15 0
							}
						}
					}
					JOINT LeftShoulder
					{
						OFFSET 1.74599 4.87741 3.49199
						CHANNELS 3 Yrotation Xrotation Zrotation
						JOINT LeftArm
						{
							OFFSET 19.9293 0 0
							CHANNELS 3 Yrotation Xrotation Zrotation
							JOINT LeftForeArm
							{
								OFFSET 25.2203 0 0
								CHANNELS 3 Yrotation Xrotation Zrotation
								JOINT LeftHand
								{
									OFFSET 22.6882 0 0
									CHANNELS 3 Yrotation Xrotation Zrotation
									End Site
									{
										OFFSET 15 0 0
									}
								}
							}
						}
					}
					JOINT RightShoulder
					{
						OFFSET -1.74599 4.87741 3.49199
						CHANNELS 3 Yrotation Xrotation Zrotation
						JOINT RightArm
						{
							OFFSET -19.9293 0 0
							CHANNELS 3 Yrotation Xrotation Zrotation
							JOINT RightForeArm
							{
								OFFSET -25.2203 0 0
								CHANNELS 3 Yrotation Xrotation Zrotation
								JOINT RightHand
								{
									OFFSET -22.6882 0 0
									CHANNELS 3 Yrotation Xrotation Zrotation
									End Site
									{
										OFFSET -15 0 0
									}
								}
							}
						}
					}
				}
			}
		}
	}
	JOINT LeftUpLeg
	{
		OFFSET 10.476 -3.49199 2
		CHANNELS 3 Yrotation Xrotation Zrotation
		JOINT LeftLeg
		{
			OFFSET -0 -42.329 2.44439
			CHANNELS 3 Yrotation Xrotation Zrotation
			JOINT LeftFoot
			{
				OFFSET -0 -39.8175 -2.44439
				CHANNELS 3 Yrotation Xrotation Zrotation
				JOINT LeftToeBase
				{
					OFFSET -0 -6.74129 15.714
					CHANNELS 3 Yrotation Xrotation Zrotation
					End Site
					{
						OFFSET -0 0 5
					}
				}
			}
		}
	}
	JOINT RightUpLeg
	{
		OFFSET -10.476 -3.49199 2
		CHANNELS 3 Yrotation Xrotation Zrotation
		JOINT RightLeg
		{
			OFFSET -0 -42.329 2.44439
			CHANNELS 3 Yrotation Xrotation Zrotation
			JOINT RightFoot
			{
				OFFSET -0 -39.8175 -2.44439
				CHANNELS 3 Yrotation Xrotation Zrotation
				JOINT RightToeBase
				{
					OFFSET -0 -6.74129 15.714
					CHANNELS 3 Yrotation Xrotation Zrotation
					End Site
					{
						OFFSET -0 0 5
					}
				}
			}
		}
	}
}
MOTION
Frames: 13
Frame Time: 0.00833333
206.710303 92.292560 -4.397263 115.699121 29.520151 118.150767 11.296886 -4.613314 14.138472 7.358333 -3.044577 10.108187 7.694769 -3.533200 6.698677 5.741400 -2.950898 4.598876 -8.391644 -31.207532 -6.231132 -8.520746 -11.519363 8.395272 -15.629880 -10.800576 33.653735 -23.305627 -10.250638 39.338154 -11.803258 -0.794846 15.494648 4.633430 -11.678456 36.719705 9.396230 -1.338760 -27.845673 49.797861 -15.006467 -24.835046 21.134978 -13.696246 -10.325980 -18.058902 -33.108954 -64.220623 21.097313 -7.503341 0.741747 0.000000 9.028282 0.000000 -5.680139 10.355439 -10.425261 0.000000 10.962353 0.000000 41.743705 -67.310988 -91.516532 0.000000 12.361421 0.000000 -27.886648 -8.044275 -2.038318 0.000000 -20.904849 0.000000
207.362964 92.808636 -1.008789 114.345569 25.597306 120.731174 11.208757 -5.152459 13.567448 6.982123 -3.387856 9.837251 7.669416 -3.666530 6.492598 5.621503 -2.941811 4.068367 -7.380313 -31.079221 -7.903819 -8.665174 -12.411962 8.732605 -14.662135 -10.694281 33.418357 -22.157049 -11.400704 38.046784 -12.518695 -0.671575 17.805309 4.913401 -11.143456 39.824316 8.653250 -1.777504 -27.514478 51.304681 -15.904572 -25.507726 19.847187 -11.522988 -9.715578 -18.507590 -31.462487 -71.779289 21.538439 -6.073683 1.286062 0.000000 11.454194 0.000000 -3.355946 8.828854 -9.446885 0.000000 0.316934 0.000000 31.932550 -63.003302 -87.280816 0.000000 4.492508 0.000000 -30.989113 -2.691343 -3.769602 0.000000 -20.413637 0.000000
208.067017 93.344232 2.381526 112.751328 21.846963 123.738121 10.949097 -5.728085 12.728603 6.684192 -3.703651 9.383537 7.562278 -3.689261 6.190649 5.556259 -2.565488 3.945246 -6.463273 -30.803907 -9.271833 -8.788352 -13.473121 9.008759 -13.415693 -9.990318 32.986721 -21.105614 -13.905444 37.201591 -13.680714 -0.361370 19.144534 4.864085 -10.719610 42.555132 7.565176 -2.735768 -27.032300 54.062794 -17.073873 -25.410308 18.144124 -9.191578 -11.444866 -17.875432 -29.464859 -78.015253 21.581654 -4.225570 1.555027 0.000000 12.886503 0.000000 -0.986607 8.410076 -8.451061 0.000000 1.635229 0.000000 24.469837 -58.242413 -85.774456 0.000000 -2.818891 0.000000 -34.406817 1.462140 -6.361450 0.000000 -10.792736 0.000000
208.691016 93.883972 5.763514 111.561133 18.417866 127.177509 10.717715 -6.468704 11.704233 6.376677 -4.058425 8.702403 7.679124 -3.732888 5.732051 6.037930 -2.269401 4.193857 -5.884037 -30.349395 -9.842223 -8.725657 -14.439178 8.968961 -12.571939 -9.528038 32.666308 -20.612293 -15.830502 35.977702 -14.358623 0.100190 20.153800 4.777809 -10.598394 44.662232 5.683210 -3.056266 -25.512376 56.203156 -16.798063 -25.475347 18.071514 -8.384768 -15.349645 -18.762456 -25.114411 -80.073327 21.373930 -3.126047 1.547489 0.000000 14.818717 0.000000 1.210523 7.819889 -6.411976 0.000000 1.701100 0.000000 19.695298 -55.249850 -86.348220 0.000000 -8.413243 0.000000 -36.383029 3.925964 -10.445769 0.000000 -0.037441 0.000000
209.363062 94.327771 9.290845 109.747474 16.066225 130.217534 10.662861 -6.464264 10.880316 6.872339 -4.340069 8.383103 7.736464 -3.736135 5.591339 5.956451 -1.992713 4.350009 -5.588702 -30.062342 -9.906145 -8.569464 -15.221376 8.686725 -11.285282 -9.045619 31.716089 -20.490328 -17.290703 35.084592 -14.905555 -0.007867 20.783170 4.922628 -10.480373 45.796612 3.920702 -3.091250 -23.266749 59.566774 -18.554484 -27.168053 19.235466 -6.603838 -18.421042 -17.042119 -20.407470 -80.829733 20.822259 -1.059796 2.152379 0.000000 15.976335 0.000000 3.005109 7.463217 -4.254390 0.000000 0.068787 0.000000 14.769030 -52.507239 -85.605692 0.000000 -12.088939 0.000000 -36.622532 3.285233 -13.318938 -0.399040 -8.250161 -4.512557
209.889746 94.234357 12.684454 107.854767 14.899979 131.584213 11.687143 -6.090619 10.250200 8.045155 -4.844033 8.970949 7.550566 -4.060005 6.802540 4.548166 -2.591221 4.300798 -4.279365 -30.010991 -11.709255 -8.426942 -14.208611 9.162780 -9.537425 -8.445959 29.018102 -20.609969 -16.805555 35.074131 -15.369270 -1.007101 21.049213 4.883401 -10.331951 45.915492 2.191219 -3.098735 -20.715804 63.070521 -19.655222 -29.120665 21.371972 -3.783598 -19.980503 -16.888046 -15.357683 -79.182088 20.294701 1.007875 5.006184 0.000000 16.714242 0.000000 3.869748 6.900131 -2.945415 0.000000 -0.359595 0.000000 8.965320 -50.243400 -81.307917 0.000000 -13.584682 0.000000 -36.731881 1.005990 -17.412170 0.000000 -5.953446 0.000000
210.275635 94.326642 16.193536 107.012379 13.756818 133.433489 12.807819 -6.211224 10.263975 8.793520 -5.211301 9.211763 7.555341 -4.315582 7.433762 4.057433 -3.275465 4.441972 -2.731579 -30.133729 -13.603680 -8.077411 -12.889180 9.505004 -8.280333 -8.532913 26.555524 -20.538210 -15.286917 34.236326 -15.700333 -1.209186 21.078906 5.158425 -9.951788 45.698966 0.938945 -3.335933 -18.668809 65.560483 -20.124148 -31.459729 23.656271 -1.885560 -18.632497 -16.019189 -10.628276 -78.929158 19.967580 2.406473 6.952474 0.000000 16.754499 0.000000 4.091542 6.202980 -1.145275 0.000000 -0.342055 0.000000 6.220894 -48.057628 -78.950722 0.000000 -12.274320 0.000000 -37.678179 1.023110 -16.322271 0.000000 -4.595634 0.000000
210.526294 94.446844 19.737062 106.787172 12.797656 135.142285 14.291444 -6.416071 10.557709 9.776269 -5.767840 9.635683 7.588690 -4.866838 8.075133 3.345083 -4.118841 4.319433 -0.719025 -29.596599 -15.999533 -7.673117 -11.913499 10.172990 -7.070856 -8.491888 24.013686 -20.089284 -12.869614 33.180682 -16.095455 -0.942317 20.945608 4.780498 -10.612608 45.111432 -0.174520 -3.075317 -17.537029 65.597901 -17.633575 -32.929521 25.062917 -1.467243 -18.343264 -16.008203 -9.205120 -79.029478 19.633378 3.591369 8.789806 0.000000 16.025099 0.000000 3.689469 5.277860 0.227082 0.000000 -0.669105 0.000000 4.961193 -45.689496 -76.650808 0.000000 -9.306721 0.000000 -38.983641 1.744814 -13.312469 0.000000 -3.997009 0.000000
210.735449 94.469495 23.234450 106.673779 11.914632 136.529997 15.734982 -6.765430 10.964848 10.601380 -6.485352 10.330705 7.571340 -5.320214 8.700515 2.410774 -4.287405 3.961822 1.769418 -30.256645 -17.663424 -6.734592 -10.488965 10.348182 -5.161306 -8.965619 21.865310 -20.117350 -10.242071 32.439378 -16.236639 -0.229091 19.771384 5.369231 -9.928154 45.505328 -1.192255 -3.275867 -17.425260 63.469887 -13.416721 -33.054404 26.196149 -2.292246 -19.829439 -16.403735 -9.548829 -79.212777 18.546040 4.838972 10.643781 0.000000 14.842908 0.000000 3.212236 4.327447 0.572729 0.000000 -1.633201 0.000000 3.762165 -42.806123 -73.574840 0.000000 -6.112365 0.000000 -39.763602 1.973779 -10.832920 0.000000 -4.414538 0.000000
210.966357 94.379395 26.735385 105.945981 10.911488 137.761325 17.404006 -6.986434 11.318682 10.766948 -7.206951 10.902846 7.361064 -5.934113 9.175214 1.465158 -4.719995 3.801794 4.061883 -30.153505 -19.047380 -6.062244 -10.269392 10.843211 -2.884644 -9.255013 19.345783 -20.532879 -6.027712 32.332001 -15.632800 0.034234 18.631267 5.507134 -9.490659 45.658465 -2.450931 -3.332417 -18.191681 61.286945 -10.047623 -32.204689 27.594911 -2.469891 -21.917973 -16.653988 -10.667985 -79.395173 16.324469 6.443328 12.205096 0.000000 13.415798 0.000000 3.118364 3.500450 0.331012 0.000000 -2.148720 0.000000 1.938004 -38.397654 -70.064453 0.000000 -3.983893 0.000000 -39.788466 1.892151 -10.305143 0.000000 -3.523111 0.000000
211.188330 94.235919 30.208746 104.908614 9.701321 139.182756 18.094638 -7.214004 11.614819 10.930730 -7.672695 11.430758 7.096015 -6.452848 9.442279 0.969771 -5.114275 3.787043 6.192731 -30.320643 -20.067311 -5.299088 -9.883048 11.112216 -0.731302 -9.808135 17.088552 -21.112751 -1.428847 32.301666 -15.221087 0.648968 16.820805 4.930467 -10.206146 45.492360 -3.765896 -3.154783 -19.288299 59.343162 -7.023954 -31.128962 28.511408 -2.246216 -24.784569 -16.842045 -12.244075 -79.216706 13.607467 8.132646 13.117740 0.000000 11.716724 0.000000 3.333656 2.761078 0.103154 0.000000 -2.367331 0.000000 -0.014012 -33.818623 -66.711318 0.000000 -2.577753 0.000000 -38.452112 1.743797 -10.038855 0.000000 -3.283027 0.000000
211.409399 94.146655 33.698093 103.718355 8.401793 141.201635 19.448439 -7.439281 10.937894 10.400023 -8.083434 12.321952 6.634294 -7.157628 9.945060 -0.114861 -5.243618 3.109786 8.286094 -30.327606 -20.725139 -4.697415 -10.214593 11.600679 1.342286 -9.845169 15.848347 -21.325250 1.000645 31.985038 -15.828203 2.971943 13.134803 4.708606 -14.187152 49.028567 -4.968742 -2.886243 -20.407916 58.952778 -5.329406 -30.742547 28.957618 -1.871189 -26.485315 -16.033306 -13.512454 -79.166969 11.307838 9.660238 13.201859 0.000000 9.891936 0.000000 3.410250 2.251681 -0.596810 0.000000 -3.055945 0.000000 -1.419523 -29.148960 -64.230675 0.000000 -1.617873 0.000000 -36.292901 1.359592 -8.228506 0.000000 -0.865042 0.000000
211.585718 94.013770 37.175192 102.427211 6.738413 143.771595 19.331560 -7.694844 11.066070 9.141337 -7.844255 12.264130 6.494093 -7.101763 9.883568 0.035703 -5.865562 2.771891 10.457938 -30.255649 -21.644958 -4.252848 -10.248906 12.687518 2.881132 -10.193060 15.082281 -21.662750 3.416366 31.318113 -16.231197 4.876672 9.777782 4.008040 -19.466040 58.747382 -5.685837 -2.818799 -19.994409 59.594512 -2.634412 -31.183207 28.573259 -2.278556 -27.281125 -16.080661 -13.336932 -78.602757 9.270714 10.585850 12.544649 0.000000 8.037901 0.000000 3.543497 1.808092 -1.838015 0.000000 -3.396282 0.000000 -2.814302 -25.443641 -62.230338 0.000000 -0.983498 0.000000 -33.225921 1.586589 -6.879684 0.000000 1.655749 0.000000
